<svg xmlns="http://www.w3.org/2000/svg" xmlns:xlink="http://www.w3.org/1999/xlink" version="1.1" width="256" height="256" viewBox="0 0 256 256" xml:space="preserve">
<g style="stroke: none; stroke-width: 0; stroke-dasharray: none; stroke-linecap: butt; stroke-linejoin: miter; stroke-miterlimit: 10; fill: none; fill-rule: nonzero; opacity: 1;" transform="translate(1.4065934065934016 1.4065934065934016) scale(2.81 2.81)">
	<path d="M 63.576 71.424 H 26.424 C 11.854 71.424 0 59.57 0 45 s 11.854 -26.424 26.424 -26.424 h 37.152 C 78.146 18.576 90 30.43 90 45 S 78.146 71.424 63.576 71.424 z M 26.424 24.576 C 15.162 24.576 6 33.738 6 45 s 9.162 20.424 20.424 20.424 h 37.152 C 74.838 65.424 84 56.262 84 45 s -9.162 -20.424 -20.424 -20.424 H 26.424 z" style="stroke: none; stroke-width: 1; stroke-dasharray: none; stroke-linecap: butt; stroke-linejoin: miter; stroke-miterlimit: 10; fill: rgb(0,0,0); fill-rule: nonzero; opacity: 1;" transform=" matrix(1 0 0 1 0 0) " stroke-linecap="round"/>
	<path d="M 62.643 59 L 62.643 59 c 7.732 0 14 -6.268 14 -14 v 0 c 0 -7.732 -6.268 -14 -14 -14 h 0 c -7.732 0 -14 6.268 -14 14 v 0 C 48.643 52.732 54.911 59 62.643 59 z" style="stroke: none; stroke-width: 1; stroke-dasharray: none; stroke-linecap: butt; stroke-linejoin: miter; stroke-miterlimit: 10; fill: rgb(0,0,0); fill-rule: nonzero; opacity: 1;" transform=" matrix(1 0 0 1 0 0) " stroke-linecap="round"/>
</g>
</svg>